<?xml version="1.0"?>
<svg xmlns="http://www.w3.org/2000/svg" viewBox="0 0 512 512" width="25" height="25"><g id="Users_Female_And_Male" data-name="Users Female And Male"><g id="Outline"><path d="M136.1,57.28a7.907,7.907,0,0,0,3.54-.83l.02-.01a8,8,0,0,0-7.12-14.33l-.03.02a8,8,0,0,0,3.59,15.15Z"/><path d="M486.276,196.3l-47.845-9.569A8.022,8.022,0,0,1,432,178.883v-8.3A56.069,56.069,0,0,0,464,120V96a16.019,16.019,0,0,0-16-16H392a8,8,0,0,0,0,16h56v24a40,40,0,0,1-80,0V88a8,8,0,0,0-16,0v32a56.069,56.069,0,0,0,32,50.586v8.3a8.022,8.022,0,0,1-6.432,7.845L329.725,196.3A32.084,32.084,0,0,0,304,227.675V272a8,8,0,0,0,16,0V227.675a16.043,16.043,0,0,1,12.862-15.689L368,204.958V208c0,22.215,32.972,37.618,36.73,39.3l3.27,1.463,3.27-1.463C415.028,245.618,448,230.215,448,208v-3.042l35.139,7.028A16.043,16.043,0,0,1,496,227.675V272H480V248a8,8,0,0,0-16,0v80a8,8,0,0,0,16,0V288h16v40a8,8,0,0,0,16,0V227.675A32.084,32.084,0,0,0,486.276,196.3ZM432,208c0,7.668-13.327,17.63-24.008,23.122C397.313,225.65,384,215.706,384,208v-6.513a24.065,24.065,0,0,0,16-22.6v-3.464a55.368,55.368,0,0,0,16,0v3.464a24.064,24.064,0,0,0,16,22.6Z"/><path d="M319.372,299.243,233.62,283.165l-.023,0-3.071-.576A8,8,0,0,1,224,274.721V249.369c.749-.507,1.5-1.018,2.229-1.549a83.365,83.365,0,0,0,18.511-18.37,81.728,81.728,0,0,0,11.97-23.58l.1-.34,13.2-60.94A92.979,92.979,0,0,0,272,125.56a90.834,90.834,0,0,0-7.431-35.99A93.85,93.85,0,0,0,244.2,59.78,95.491,95.491,0,0,0,213.729,39.5,97.4,97.4,0,0,0,176,32a100.527,100.527,0,0,0-10.141.51,8,8,0,0,0,.8,15.96,7.473,7.473,0,0,0,.819-.04A83.093,83.093,0,0,1,176,48a80.49,80.49,0,0,1,56.95,23.17,76.211,76.211,0,0,1,22.98,51.6,69.143,69.143,0,0,0-21.99-10.532l-3.427-.843-2.936,1.937C227.355,113.48,205.025,128,176,128s-51.355-14.52-51.562-14.656l-2.945-1.964-3.433.859a69.157,69.157,0,0,0-21.994,10.534A76.4,76.4,0,0,1,116.51,73.78a8,8,0,0,0-5.87-13.43,8.037,8.037,0,0,0-5.88,2.57,91.693,91.693,0,0,0-22.77,81.67l13.19,60.93.11.35a81.479,81.479,0,0,0,11.97,23.58,83.361,83.361,0,0,0,18.51,18.37c.734.531,1.48,1.042,2.23,1.549v25.352a8,8,0,0,1-6.526,7.863l-3.071.576-.023,0L32.629,299.243A40.021,40.021,0,0,0,0,338.558V504a8,8,0,0,0,16,0V338.558a24.012,24.012,0,0,1,19.577-23.589l76.6-14.364a63.982,63.982,0,0,0,127.635,0l76.607,14.364A24.012,24.012,0,0,1,336,338.558V504a8,8,0,0,0,16,0V338.558A40.021,40.021,0,0,0,319.372,299.243ZM110.66,201.39l-12.5-57.724c4.35-7.83,14.577-12.812,20.757-14.975C126.982,133.291,148.694,144,176,144s49.015-10.708,57.081-15.308c6.192,2.168,16.409,7.148,20.757,14.971l-12.5,57.727C232.359,229.27,206.109,248,176.01,248h-.02C145.89,248,119.64,229.27,110.66,201.39ZM176,344a47.969,47.969,0,0,1-47.968-46.68A24,24,0,0,0,144,274.721V257.844c1.714.686,3.448,1.33,5.21,1.906a86.561,86.561,0,0,0,53.58,0c1.762-.576,3.5-1.22,5.21-1.906v16.877a24.006,24.006,0,0,0,15.967,22.6A48.047,48.047,0,0,1,176,344Z"/><path d="M359.979,32.01a7.84,7.84,0,0,0,4.8-1.61,7.992,7.992,0,1,0-4.8,1.61Z"/><path d="M344.84,176H352a8,8,0,0,0,0-16h-7.16a8.869,8.869,0,0,1-8.84-8.84V88a72,72,0,0,1,9.76-36.22,8,8,0,1,0-13.821-8.06A87.942,87.942,0,0,0,320,88v63.16A24.854,24.854,0,0,0,344.84,176Z"/><path d="M388.66,18.35a8.5,8.5,0,0,0,1.94-.23A72.02,72.02,0,0,1,480,88v63.16a8.875,8.875,0,0,1-8.84,8.84H464a8,8,0,0,0,0,16h7.16A24.855,24.855,0,0,0,496,151.16V88A88.06,88.06,0,0,0,386.74,2.59a8,8,0,0,0,1.92,15.76Z"/><path d="M56,368a8,8,0,0,0-8,8V504a8,8,0,0,0,16,0V376A8,8,0,0,0,56,368Z"/><path d="M296,368a8,8,0,0,0-8,8V504a8,8,0,0,0,16,0V376A8,8,0,0,0,296,368Z"/><path d="M344,240a8,8,0,0,0-8,8v32a8,8,0,0,0,16,0V248A8,8,0,0,0,344,240Z"/><path d="M415.39,268.94a8.032,8.032,0,0,0-.741-1.38,8.369,8.369,0,0,0-.989-1.22,7.728,7.728,0,0,0-1.221-.99,7.8,7.8,0,0,0-2.879-1.19,7.809,7.809,0,0,0-3.121,0,7.893,7.893,0,0,0-1.5.45,7.986,7.986,0,0,0-1.379.74,7.589,7.589,0,0,0-2.21,2.21,8.032,8.032,0,0,0-.741,1.38,8.847,8.847,0,0,0-.46,1.5,8.241,8.241,0,0,0,0,3.12,8.847,8.847,0,0,0,.46,1.5,8.032,8.032,0,0,0,.741,1.38,7.766,7.766,0,0,0,.99,1.22,8.375,8.375,0,0,0,1.22.99,7.986,7.986,0,0,0,1.379.74,7.893,7.893,0,0,0,1.5.45,7.69,7.69,0,0,0,3.121,0,7.8,7.8,0,0,0,2.879-1.19,7.728,7.728,0,0,0,1.221-.99,8.369,8.369,0,0,0,.989-1.22,8.032,8.032,0,0,0,.741-1.38,7.85,7.85,0,0,0,.45-1.5,7.685,7.685,0,0,0,0-3.12A7.85,7.85,0,0,0,415.39,268.94Z"/><path d="M415.39,300.94a8.032,8.032,0,0,0-.741-1.38,8.369,8.369,0,0,0-.989-1.22,7.728,7.728,0,0,0-1.221-.99,7.8,7.8,0,0,0-2.879-1.19,7.809,7.809,0,0,0-3.121,0,7.893,7.893,0,0,0-1.5.45,7.986,7.986,0,0,0-1.379.74,7.589,7.589,0,0,0-2.21,2.21,8.032,8.032,0,0,0-.741,1.38,8.847,8.847,0,0,0-.46,1.5,8.241,8.241,0,0,0,0,3.12,8.847,8.847,0,0,0,.46,1.5,8.032,8.032,0,0,0,.741,1.38,7.589,7.589,0,0,0,2.21,2.21,7.986,7.986,0,0,0,1.379.74,7.893,7.893,0,0,0,1.5.45,7.69,7.69,0,0,0,3.121,0,7.8,7.8,0,0,0,2.879-1.19,7.728,7.728,0,0,0,1.221-.99,8.369,8.369,0,0,0,.989-1.22,8.032,8.032,0,0,0,.741-1.38,7.85,7.85,0,0,0,.45-1.5,7.685,7.685,0,0,0,0-3.12A7.85,7.85,0,0,0,415.39,300.94Z"/></g></g></svg>
